<?xml version="1.0" encoding="utf-8"?>
<!-- Generator: Adobe Illustrator 15.0.2, SVG Export Plug-In . SVG Version: 6.00 Build 0)  -->
<!DOCTYPE svg PUBLIC "-//W3C//DTD SVG 1.1//EN" "http://www.w3.org/Graphics/SVG/1.1/DTD/svg11.dtd">
<svg version="1.1" id="Layer_1" xmlns="http://www.w3.org/2000/svg" xmlns:xlink="http://www.w3.org/1999/xlink" x="0px" y="0px"
	 width="73.5px" height="14px" viewBox="0 0 73.5 14" enable-background="new 0 0 73.5 14" xml:space="preserve">
<g>
	<path fill="#F43111" d="M30.06,4.421c-1.438,0-2.511,0.917-2.513,2.245c0,0.979,0.917,2.891,0.918,3.695
		c-0.001,0.269-0.174,0.363-0.332,0.363c-0.363-0.002-0.9-0.474-1.027-1.17c0.267-0.301,0.411-0.537,0.411-0.869
		c0-0.394-0.443-1.104-0.997-1.104c-0.569,0-0.855,0.829-0.967,1.642c-0.652,0.727-1.211,1.127-1.434,1.127
		c-0.141,0-0.22-0.063-0.222-0.238c0.001-0.395,0.506-1.518,0.792-2.213c0.331-0.758,0.457-1.312,0.458-1.738
		c-0.001-0.615-0.365-1.089-1.091-1.089c-0.694,0-1.785,0.711-2.938,2.701c0.427-0.774,0.633-1.879,0.632-2.272
		c-0.001-0.474-0.142-0.664-0.679-0.664c-0.979,0-2.385,1.658-2.386,2.59c0.001,0.283,0.03,0.604,0.126,0.884
		c-0.947,1.301-1.658,1.879-2.005,1.881c-0.127-0.002-0.221-0.049-0.22-0.254c-0.001-0.299,0.662-1.771,0.995-2.67
		c0.235-0.63,0.3-0.947,0.3-1.232c0-0.647-0.648-1.279-1.533-1.279c-0.236,0-0.505,0.094-0.663,0.3
		c-0.078,1.358-0.3,2.463-0.837,4.168c-0.315,0.332-0.821,0.711-1.09,0.713c-0.22,0-0.317-0.156-0.317-0.412
		c0-0.252,0.095-0.727,0.253-1.295C14.5,6.916,14.91,5.97,14.91,5.464c0-0.474-0.27-0.632-0.76-0.632
		c-1.105,0-2.622,1.77-2.623,2.749c0,0.315,0.033,0.647,0.206,0.978c-0.411,1.012-0.63,1.93-0.631,2.403
		c0,0.948,0.223,1.481,1.154,1.483c0.711,0,1.675-0.664,2.432-2.102c-0.063,0.334-0.094,0.6-0.094,0.821
		c0,0.821,0.393,1.026,1.042,1.026c0.663,0,1.501-0.504,2.243-1.168c0.2-0.176,0.393-0.361,0.573-0.551
		c0.056,0.903,0.689,1.688,1.543,1.687c0.362,0.001,0.474-0.048,0.632-0.206c0.047-1.071,0.142-1.782,0.363-2.997
		c0.617-0.854,1.137-1.091,1.278-1.093c0.126,0,0.19,0.062,0.191,0.189c-0.002,0.348-0.806,1.945-0.806,2.985
		c-0.001,0.868,0.316,1.28,1.247,1.28c0.748,0,1.814-0.707,2.676-1.526c0.26,1.079,1.093,1.649,2.112,1.651
		c1.42-0.002,3.048-0.744,3.048-2.654c0-1.154-0.899-2.465-0.899-3.175c0-0.284,0.172-0.379,0.505-0.378
		c0.252,0,0.535,0.063,0.836,0.189c0.189-0.189,0.331-0.521,0.333-0.853C31.513,4.817,30.975,4.423,30.06,4.421z M9.998,4.817
		c0.979-1.405,1.185-1.563,1.801-1.61c0.206-0.221,0.285-0.537,0.284-0.791c0-0.805-0.553-1.626-1.549-1.626
		c-0.835,0-1.263,0.237-2.163,2.338C7.724,4.644,6.84,6.317,6.112,7.218c-0.3,0.001-0.568,0.016-0.789,0.047
		c0.76-3.127,1.233-5.338,1.232-5.827C6.556,0.6,6.049,0,4.943,0C3-0.001,0,2.763,0,5.023c0,1.374,1.153,2.195,2.527,2.195
		c0.142,0.001,0.347-0.015,0.49-0.031L2.812,8.15C2.148,9.1,1.77,10.062,1.77,10.646c0,0.865,0.915,1.674,1.767,1.674
		c0.287,0,0.523-0.062,0.665-0.207l0.727-3.346c0.727,0.235,1.074,0.979,2.068,3.143C7.392,12.764,7.676,13,8.276,13
		c1.122,0,2.321-0.79,2.322-1.66c0-0.188-0.063-0.425-0.188-0.566c-0.19,0.049-0.507,0.094-0.648,0.094
		c-0.237,0.002-0.397-0.094-0.585-0.471c-0.553-1.108-1.105-2.23-1.676-2.609C8.245,7.141,9.034,6.208,9.998,4.817z M3.396,5.75
		C2.449,5.449,2.022,5.117,2.021,4.454c0-1.074,1.391-2.401,1.833-2.401c0.189,0,0.285,0.126,0.284,0.41
		C4.139,2.875,3.87,4.123,3.396,5.75z M71.275,4.875c-0.778,0-1.319,0.635-1.319,1.457c0,0.579,0.413,0.95,1,0.949
		c0.8,0.001,1.341-0.606,1.341-1.479C72.299,5.27,71.962,4.875,71.275,4.875z M71.025,7.005c-0.476,0.001-0.754-0.316-0.754-0.762
		c0-0.591,0.358-1.098,0.936-1.096c0.537-0.001,0.766,0.297,0.766,0.723C71.973,6.592,71.562,7.006,71.025,7.005z M71.506,6.41
		l-0.07-0.058L71.339,6.22c0.173-0.159,0.252-0.282,0.253-0.44c-0.001-0.198-0.15-0.345-0.479-0.345
		c-0.275,0-0.457,0.12-0.457,0.233l0.055,0.087l0.152-0.037l-0.143,0.437l-0.078,0.281c0,0.131,0.09,0.225,0.191,0.224l0.082-0.034
		l0.059-0.31c0.072,0.04,0.135,0.12,0.221,0.295c0.033,0.068,0.07,0.088,0.14,0.087c0.138,0.001,0.287-0.112,0.287-0.216
		l-0.05-0.086L71.506,6.41z M71.166,6.151L71.02,6.142l0.072-0.424c0.119,0.008,0.189,0.065,0.188,0.146
		C71.279,5.95,71.258,6.024,71.166,6.151z M69.328,8.135c-0.979,1.406-1.975,2.213-2.287,2.213
		c-0.146-0.002-0.223-0.062-0.223-0.238c0-0.393,0.504-1.516,0.789-2.211c0.332-0.758,0.459-1.312,0.457-1.738
		c0.002-0.615-0.361-1.089-1.09-1.089c-0.693,0-1.783,0.711-2.938,2.703c0.427-0.776,0.63-1.879,0.632-2.274
		c0-0.474-0.144-0.664-0.681-0.664c-0.979,0-2.385,1.658-2.385,2.591c0,0.292,0.03,0.626,0.135,0.914
		c-0.939,1.271-1.698,1.816-1.998,1.816c-0.127,0-0.19-0.049-0.189-0.364c-0.001-0.409-0.119-0.521,0.434-2.511
		c0.125-0.445,0.174-0.839,0.174-1.044c0-0.552-0.254-1.231-1.328-1.231c-0.223,0-0.428,0.063-0.555,0.206l-0.053-0.015
		c-0.078-0.079-0.188-0.11-0.41-0.11c-1.338,0-2.951,1.782-3.41,3.771c-0.752,0.904-1.34,1.303-1.596,1.302
		c-0.127,0-0.19-0.05-0.19-0.361c0-0.411-0.119-0.524,0.432-2.515c0.128-0.443,0.175-0.837,0.175-1.044
		c0-0.553-0.252-1.231-1.328-1.23c-0.22,0-0.426,0.062-0.553,0.205L51.288,5.2c-0.08-0.08-0.188-0.111-0.41-0.112
		c-1.331,0-2.928,1.76-3.401,3.73c-0.883,1.104-1.635,1.688-1.875,1.688c-0.142-0.001-0.222-0.062-0.221-0.236
		c-0.001-0.393,0.631-1.769,0.916-2.463c0.285-0.663,0.426-1.216,0.426-1.625c0-0.618-0.348-1.17-1.072-1.17
		c-0.696,0-1.565,0.679-2.86,2.623c0.379-0.758,0.394-1.121,0.396-1.534c0-0.521-0.334-0.931-0.934-0.931
		c-0.693,0-1.484,0.458-2.639,2.449c0.383-0.838,0.49-1.392,0.492-1.786c0-0.474-0.222-0.663-0.68-0.663
		c-0.979,0-2.242,1.168-2.244,2.1c0,0.303,0.031,0.652,0.147,0.944c-1.045,1.436-2.092,2.152-2.722,2.15
		c-0.331,0.003-0.427-0.172-0.427-0.553c0-0.235,0.126-1.123,0.554-2.862c0.457,0.082,0.79,0.096,1.154,0.096
		c0.521,0,0.915-0.458,0.915-1.059c0.001-0.237-0.11-0.521-0.3-0.663c-0.205,0.048-0.869,0.095-1.357,0.11
		c0.835-1.674,1.027-2.052,1.027-2.542c0-0.68-0.333-0.932-1.06-0.932c-1.075,0-1.926,0.994-2.069,2.385
		c-0.062,0.584-0.079,0.837-0.094,1.169c-0.648,0.016-0.996,0.458-0.996,0.948c0,0.347,0.269,0.379,0.585,0.41
		c-0.6,2.007-0.759,2.968-0.759,3.429c-0.001,1.452,0.821,2.084,2.037,2.084c1.019,0,2.225-0.89,3.09-1.834
		c0.081,0.882,0.704,1.63,1.541,1.63c0.36,0,0.473-0.051,0.63-0.207c0.047-1.072,0.189-1.957,0.41-3.174
		c0.617-0.854,0.996-1.091,1.137-1.091c0.127-0.002,0.189,0.048,0.189,0.188c0,0.158-0.143,0.521-0.269,0.869
		c-0.282,0.76-0.537,1.688-0.537,2.289c0.017,0.946,0.617,1.311,1.501,1.311c0.331,0,0.477-0.079,0.631-0.235
		c0.049-1.075,0.205-1.959,0.428-3.176c0.615-0.854,1.168-1.183,1.311-1.183c0.126-0.002,0.188,0.06,0.188,0.186
		c0.002,0.35-0.93,2.229-0.933,3.27c0.003,0.869,0.318,1.278,1.249,1.278c0.829,0,2.083-0.929,3.01-1.911
		c0.176,1.002,0.76,1.518,1.51,1.518c0.553,0,1.277-0.395,1.783-1.832c-0.033,0.236-0.049,0.443-0.049,0.617
		c0,1.01,0.442,1.295,1.137,1.295c0.627,0,1.705-0.771,2.545-1.637c0.166,1.026,0.757,1.557,1.515,1.557
		c0.554,0,1.28-0.395,1.785-1.834c-0.031,0.238-0.048,0.445-0.048,0.617c0,1.012,0.441,1.297,1.136,1.295
		c0.655,0.002,1.803-0.842,2.657-1.754c0.045,0.922,0.681,1.725,1.544,1.725c0.364,0,0.475-0.049,0.632-0.205
		c0.047-1.074,0.143-1.785,0.361-3c0.619-0.855,1.139-1.096,1.283-1.096c0.125,0,0.188,0.064,0.188,0.19
		c0,0.349-0.807,1.942-0.807,2.983c0,0.869,0.315,1.279,1.246,1.279c1.455,0.002,4.125-2.67,4.123-3.664
		C69.945,8.341,69.628,8.135,69.328,8.135z M50.703,9.512c-0.188,0.235-0.409,0.393-0.631,0.395c-0.219-0.002-0.41-0.064-0.41-0.648
		c0-1.218,0.761-2.527,1.548-3.033L50.703,9.512z M57.639,9.51c-0.188,0.234-0.41,0.393-0.631,0.395
		c-0.22-0.002-0.41-0.064-0.412-0.646c0-1.218,0.76-2.528,1.549-3.034L57.639,9.51z"/>
</g>
</svg>
